<?xml version="1.0" encoding="UTF-8"?>
<svg version="1.1" xmlns="http://www.w3.org/2000/svg" width="433" height="246">
<path d="M0 0 C142.89 0 285.78 0 433 0 C433 81.18 433 162.36 433 246 C290.11 246 147.22 246 0 246 C0 164.82 0 83.64 0 0 Z " fill="#1E212F" transform="translate(0,0)"/>
<path d="M0 0 C1.00611328 -0.01224609 2.01222656 -0.02449219 3.04882812 -0.03710938 C8.27484439 -0.04744428 12.39998537 0.25349218 17.3125 2.1875 C18.70110242 2.54207698 20.09500473 2.87621718 21.4921875 3.1953125 C32.66630242 5.82304523 42.32395301 9.55473411 52.3125 15.1875 C53.37339844 15.77402344 54.43429688 16.36054687 55.52734375 16.96484375 C60.48846487 19.81070425 60.48846487 19.81070425 62.3125 21.1875 C62.3125 21.8475 62.3125 22.5075 62.3125 23.1875 C62.93125 23.496875 63.55 23.80625 64.1875 24.125 C65.5625 24.8125 66.9375 25.5 68.3125 26.1875 C68.3125 26.8475 68.3125 27.5075 68.3125 28.1875 C70.2925 29.1775 70.2925 29.1775 72.3125 30.1875 C72.3125 30.8475 72.3125 31.5075 72.3125 32.1875 C72.89644531 32.43757813 73.48039063 32.68765625 74.08203125 32.9453125 C76.60942051 34.35286028 78.10553954 35.88448689 80 38.0625 C80.60199219 38.74054687 81.20398438 39.41859375 81.82421875 40.1171875 C83.32016194 42.19815834 83.8914756 43.68380826 84.3125 46.1875 C84.9725 46.1875 85.6325 46.1875 86.3125 46.1875 C86.77140625 47.1053125 87.2303125 48.023125 87.703125 48.96875 C88.14628052 49.85421509 88.14628052 49.85421509 88.59838867 50.75756836 C89.24620504 52.05434942 89.89217408 53.35205484 90.53637695 54.65063477 C91.82773861 57.24932495 93.11633776 59.83491256 94.52734375 62.37109375 C106.28212487 83.56746614 104.26269269 109.6778903 98.76611328 132.22265625 C98.00226646 135.53128879 97.48172582 138.88214992 97 142.2421875 C96.05868821 144.90567201 94.32158743 146.22677949 92.3125 148.1875 C91.33671086 149.8415162 90.42234017 151.53284861 89.5625 153.25 C86.38167652 159.27084445 82.75804299 165.01104566 78.3125 170.1875 C77.6525 170.1875 76.9925 170.1875 76.3125 170.1875 C76.10625 170.72375 75.9 171.26 75.6875 171.8125 C73.77999574 175.10728009 71.26430616 177.78113628 68.3125 180.1875 C67.6525 180.1875 66.9925 180.1875 66.3125 180.1875 C66.3125 180.8475 66.3125 181.5075 66.3125 182.1875 C64.1875 183.73828125 64.1875 183.73828125 61.3125 185.5 C60.30832031 186.12003906 59.30414063 186.74007812 58.26953125 187.37890625 C57.29371094 187.97574219 56.31789062 188.57257813 55.3125 189.1875 C53.87434264 190.10313499 52.43674802 191.01965515 51 191.9375 C42.56188119 197.1875 42.56188119 197.1875 39.3125 197.1875 C39.3125 197.8475 39.3125 198.5075 39.3125 199.1875 C18.82657585 208.44375472 -9.64794623 209.99933906 -30.6875 202.1875 C-34.7388008 200.62453914 -38.73415802 198.98380436 -42.6875 197.1875 C-42.6875 196.5275 -42.6875 195.8675 -42.6875 195.1875 C-43.6465625 194.8471875 -43.6465625 194.8471875 -44.625 194.5 C-50.96928145 191.78102224 -57.14483382 188.30896972 -62.6875 184.1875 C-62.6875 183.5275 -62.6875 182.8675 -62.6875 182.1875 C-65.01964148 180.98121992 -67.18392139 180.0220262 -69.6875 179.1875 C-70.35416667 177.85416667 -71.02083333 176.52083333 -71.6875 175.1875 C-73.3329378 173.49987149 -75.00038577 171.8334651 -76.6875 170.1875 C-77.22375 169.445 -77.76 168.7025 -78.3125 167.9375 C-79.66122834 165.89037125 -79.66122834 165.89037125 -82.6875 165.1875 C-99.98169396 144.5305461 -104.20688547 116.14232148 -102.6875 90.1875 C-101.22821104 77.6867083 -97.28631431 64.91057326 -90.6875 54.1875 C-90.22472656 53.3109375 -89.76195312 52.434375 -89.28515625 51.53125 C-84.59255023 42.83858541 -78.58112788 36.18808121 -71.6875 29.1875 C-70.94886719 28.40375 -70.21023437 27.62 -69.44921875 26.8125 C-67.6875 25.1875 -67.6875 25.1875 -65.6875 25.1875 C-65.6875 24.5275 -65.6875 23.8675 -65.6875 23.1875 C-65.0275 23.1875 -64.3675 23.1875 -63.6875 23.1875 C-63.6875 22.5275 -63.6875 21.8675 -63.6875 21.1875 C-61.63351117 19.66827749 -59.59810936 18.29043899 -57.4375 16.9375 C-56.80432861 16.53708496 -56.17115723 16.13666992 -55.51879883 15.72412109 C-44.86818746 9.08896468 -34.21206233 3.75307029 -21.6875 2.1875 C-21.3575 1.8575 -21.0275 1.5275 -20.6875 1.1875 C-13.78118804 0.19484966 -6.96970161 0.00451698 0 0 Z " fill="#3F2E79" transform="translate(108.6875,20.8125)"/>
<path d="M0 0 C1.01797165 -0.00563965 2.0359433 -0.0112793 3.08476257 -0.01708984 C4.76642265 -0.01101715 4.76642265 -0.01101715 6.48205566 -0.00482178 C7.65931717 -0.00832642 8.83657867 -0.01183105 10.04951477 -0.01544189 C13.2829537 -0.02275038 16.51622965 -0.02101718 19.74966621 -0.01468372 C23.12933833 -0.00962941 26.50899935 -0.01431359 29.88867188 -0.01745605 C35.5648393 -0.02109737 41.24095472 -0.0162923 46.91711426 -0.0067749 C53.48480506 0.00411 60.0523717 0.00058453 66.62005949 -0.01042771 C72.25321629 -0.01949591 77.88633566 -0.02078817 83.51949739 -0.01555037 C86.88644732 -0.01242808 90.25333883 -0.01202838 93.62028503 -0.01862335 C97.37247216 -0.02367895 101.12441786 -0.01599177 104.87658691 -0.00482178 C105.99769363 -0.00887024 107.11880035 -0.0129187 108.27388 -0.01708984 C109.80083748 -0.00863037 109.80083748 -0.00863037 111.35864258 0 C112.69042416 0.00113108 112.69042416 0.00113108 114.04911041 0.002285 C116.17932129 0.25396729 116.17932129 0.25396729 118.17932129 2.25396729 C118.37803182 5.10496912 118.45200152 7.85885153 118.43811035 10.71099854 C118.44161499 11.58589935 118.44511963 12.46080017 118.44873047 13.36221313 C118.45755666 16.26371112 118.45169551 19.16496668 118.44494629 22.06646729 C118.44629268 24.07664029 118.448233 26.08681298 118.45074463 28.09698486 C118.4536971 32.31373184 118.4493943 36.53039419 118.44006348 40.74713135 C118.42866889 46.16138952 118.43522771 51.57544943 118.4472084 56.98970032 C118.45442369 61.14171858 118.4521406 65.29368957 118.44695282 69.44570923 C118.44561541 71.4424746 118.44726723 73.43924422 118.45191193 75.43600464 C118.45697172 78.22309798 118.44927467 81.00986695 118.43811035 83.79693604 C118.44215881 84.62816986 118.44620728 85.45940369 118.45037842 86.31582642 C118.40784928 92.0254393 118.40784928 92.0254393 116.17932129 94.25396729 C114.19247437 94.49447632 114.19247437 94.49447632 111.72961426 94.48101807 C110.34840897 94.48079147 110.34840897 94.48079147 108.93930054 94.4805603 C107.94342926 94.47023773 106.94755798 94.45991516 105.92150879 94.44927979 C104.90332062 94.44644989 103.88513245 94.44362 102.83609009 94.44070435 C99.57538229 94.42948499 96.31494645 94.40437724 93.05432129 94.37896729 C90.847294 94.36893975 88.64026241 94.35981351 86.43322754 94.35162354 C81.01516557 94.32953996 75.59726285 94.29604524 70.17932129 94.25396729 C70.60615761 95.52842182 71.04629331 96.79842611 71.49182129 98.06646729 C71.7354541 98.7741626 71.97908691 99.48185791 72.23010254 100.21099854 C73.05250989 102.32929664 73.05250989 102.32929664 74.78479004 103.70318604 C76.17932129 105.25396729 76.17932129 105.25396729 76.17932129 110.25396729 C62.64932129 110.25396729 49.11932129 110.25396729 35.17932129 110.25396729 C35.17932129 104.58108222 35.79736058 104.33221402 39.17932129 100.25396729 C39.89071115 98.26943487 40.56362284 96.27024104 41.17932129 94.25396729 C40.32154587 94.26062912 40.32154587 94.26062912 39.44644165 94.26742554 C33.50960787 94.3115768 27.5728205 94.34179941 21.63586426 94.36383057 C19.41839708 94.37390553 17.20094324 94.38756588 14.98352051 94.40484619 C11.80135817 94.42902892 8.61937104 94.44043525 5.43713379 94.44927979 C3.94332687 94.46476364 3.94332687 94.46476364 2.41934204 94.4805603 C1.03813675 94.4807869 1.03813675 94.4807869 -0.37097168 94.48101807 C-1.18371552 94.48545929 -1.99645935 94.48990051 -2.83383179 94.49447632 C-4.82067871 94.25396729 -4.82067871 94.25396729 -6.82067871 92.25396729 C-7.01938924 89.40296545 -7.09335894 86.64908304 -7.07946777 83.79693604 C-7.08297241 82.92203522 -7.08647705 82.0471344 -7.09008789 81.14572144 C-7.09891408 78.24422345 -7.09305293 75.34296789 -7.08630371 72.44146729 C-7.08765011 70.43129428 -7.08959042 68.42112159 -7.09210205 66.41094971 C-7.09505452 62.19420273 -7.09075173 57.97754038 -7.0814209 53.76080322 C-7.07002632 48.34654505 -7.07658513 42.93248514 -7.08856583 37.51823425 C-7.09578111 33.36621599 -7.09349802 29.214245 -7.08831024 25.06222534 C-7.08697283 23.06545997 -7.08862465 21.06869035 -7.09326935 19.07192993 C-7.09832914 16.28483659 -7.09063209 13.49806762 -7.07946777 10.71099854 C-7.08351624 9.87976471 -7.0875647 9.04853088 -7.09173584 8.19210815 C-7.04529649 1.95754286 -6.36520457 0.00540594 0 0 Z " fill="#1C6EA0" transform="translate(53.8206787109375,72.74603271484375)"/>
<path d="M0 0 C37.29 0 74.58 0 113 0 C113 20.46 113 40.92 113 62 C104.09 62 95.18 62 86 62 C85.34895833 58.484375 84.69791667 54.96875 84.046875 51.453125 C82.9108429 47.70591463 82.11694022 46.30568181 79 44 C75.9862608 42.67502081 75.9862608 42.67502081 72.75 41.75 C71.67234375 41.41484375 70.5946875 41.0796875 69.484375 40.734375 C68.66453125 40.49203125 67.8446875 40.2496875 67 40 C66.89816406 40.52078125 66.79632813 41.0415625 66.69140625 41.578125 C65.76928774 44.80814463 64.36563417 47.71141666 62.9375 50.75 C62.38964844 51.92046875 61.84179688 53.0909375 61.27734375 54.296875 C60.85582031 55.18890625 60.43429688 56.0809375 60 57 C59.67 57 59.34 57 59 57 C58.505 51.06 58.505 51.06 58 45 C57.01 45 56.02 45 55 45 C54.67 48.63 54.34 52.26 54 56 C50.84036861 52.84036861 49.61588247 50.36009177 47.8125 46.3125 C47.28269531 45.13300781 46.75289062 43.95351562 46.20703125 42.73828125 C45.80871094 41.83464844 45.41039062 40.93101563 45 40 C42.8706608 40.75876453 40.74662427 41.5324234 38.625 42.3125 C37.44164062 42.74175781 36.25828125 43.17101562 35.0390625 43.61328125 C31.76212802 44.78621555 31.76212802 44.78621555 30 48 C29.55058745 50.38299617 29.18393057 52.78225484 28.875 55.1875 C28.58625 57.435625 28.2975 59.68375 28 62 C18.76 62 9.52 62 0 62 C0 41.54 0 21.08 0 0 Z " fill="#E33D90" transform="translate(53,79)"/>
<path d="M0 0 C6.0546875 -0.1953125 6.0546875 -0.1953125 8 0 C10.7693509 2.7693509 10.39682143 4.6620663 10.6328125 8.5390625 C10.75849609 10.49199219 10.75849609 10.49199219 10.88671875 12.484375 C10.96634549 13.86457183 11.04576996 15.24478034 11.125 16.625 C11.21139062 18.01307393 11.29861988 19.40109594 11.38671875 20.7890625 C11.59942023 24.19228625 11.80347076 27.59581022 12 31 C13.83516455 27.06826555 15.66819735 23.1355466 17.49926758 19.2019043 C18.12238106 17.86406683 18.74607463 16.52649939 19.37036133 15.18920898 C20.26796942 13.26617113 21.16348192 11.34216956 22.05859375 9.41796875 C22.86768188 7.68196411 22.86768188 7.68196411 23.69311523 5.91088867 C25.04769687 3.02369915 25.04769687 3.02369915 26 0 C32.15234375 -0.09765625 32.15234375 -0.09765625 34 0 C34.495 0.495 34.495 0.495 35 1 C34.98786622 3.58146134 34.9028816 6.11320699 34.75 8.6875 C34.68437866 9.8319458 34.68437866 9.8319458 34.61743164 10.99951172 C34.19791 17.14100209 33.13254171 22.87808875 31.62109375 28.8515625 C30.94058988 32.30116074 30.89840143 35.49264057 31 39 C34.29075996 38.62095792 34.29075996 38.62095792 37 37 C37.13241142 35.27276658 37.23076852 33.54287222 37.3125 31.8125 C37.85401292 25.38099271 39.75940044 21.97386152 44.625 17.6875 C47.97054888 15.31039948 49.80677613 14.82243129 53.875 14.75 C55.17050781 14.71132812 55.17050781 14.71132812 56.4921875 14.671875 C59.51721676 15.06767322 60.83952099 15.86898206 63 18 C63.625 21.375 63.625 21.375 63 25 C58.78909541 29.75076415 54.0261498 31.35285239 48 33 C48.27034634 35.43717258 48.27034634 35.43717258 49 38 C52.28078549 40.18719033 52.80590051 40.21791927 56.5 39.75 C57.2734375 39.66234375 58.046875 39.5746875 58.84375 39.484375 C61.2798442 39.07260497 61.2798442 39.07260497 64 37 C64.3968416 34.83775203 64.3968416 34.83775203 64.375 32.375 C64.84058236 26.17917316 66.87198517 21.75452052 71.5703125 17.6171875 C76.10926809 14.59825425 80.67629481 14.19398108 86 15 C89.0625 16.125 89.0625 16.125 91 18 C91.70196354 21.58781367 91.31650368 23.3957657 89.625 26.625 C85.36490942 30.47936766 79.79603828 33 74 33 C75.68807908 37.23084903 75.68807908 37.23084903 79 40 C84.19691092 40.39976238 87.63882646 39.94125657 92 37 C94.01811847 33.03558222 94.55175548 29.06872594 95.125 24.6875 C95.29257812 23.43324219 95.46015625 22.17898437 95.6328125 20.88671875 C95.81457031 19.45779297 95.81457031 19.45779297 96 18 C94.68 18 93.36 18 92 18 C92.495 16.515 92.495 16.515 93 15 C94.32 15 95.64 15 97 15 C97.33 12.03 97.66 9.06 98 6 C100.33294775 5.95758277 102.66702567 5.95907063 105 6 C106 7 106 7 106.09765625 8.84765625 C106.06510417 10.8984375 106.03255208 12.94921875 106 15 C107.98 15 109.96 15 112 15 C112 15.99 112 16.98 112 18 C109.69 18 107.38 18 105 18 C104.66034526 20.18652739 104.32857523 22.37428025 104 24.5625 C103.7215625 26.38974609 103.7215625 26.38974609 103.4375 28.25390625 C103.01444923 31.87627848 102.92498575 35.35712046 103 39 C106.465 38.505 106.465 38.505 110 38 C111.83622588 30.39277848 112.96324187 22.75362732 114 15 C120.75 14.875 120.75 14.875 123 16 C123.16272705 19.90544925 123.06008879 23.16746591 122 26.9375 C120.85503187 31.05777264 120.84772225 34.73622305 121 39 C123.43717258 38.72965366 123.43717258 38.72965366 126 38 C126.66 37.01 127.32 36.02 128 35 C128.99 35 129.98 35 131 35 C130.49268371 39.39674114 127.88085945 41.83808109 125 45 C121.93570224 46.53214888 119.3834358 46.22938548 116 46 C113.0625 44.5 113.0625 44.5 111 43 C110.01 43.7425 110.01 43.7425 109 44.5 C105.21995332 46.39002334 102.15272884 46.93771296 98 46 C95 43.5 95 43.5 93 41 C92.071875 41.639375 91.14375 42.27875 90.1875 42.9375 C84.92132961 46.34502202 80.14161199 46.73661078 74 46 C70.5625 44 70.5625 44 68 42 C64.81509993 41.7226499 64.81509993 41.7226499 62 44 C57.24671652 46.84185672 52.37969504 46.70785461 47 46 C44 44.625 44 44.625 42 43 C41.01 42.34 40.02 41.68 39 41 C38.401875 41.639375 37.80375 42.27875 37.1875 42.9375 C34.33591351 45.62613869 32.43750128 45.95227259 28.5625 46.375 C25 46 25 46 22.5625 44 C19.40180844 37.93147221 21.17517225 30.94510799 22.5 24.5 C22.64308594 23.77296875 22.78617188 23.0459375 22.93359375 22.296875 C23.28233698 20.52990929 23.64019723 18.76474691 24 17 C23.70867187 17.65484375 23.41734375 18.3096875 23.1171875 18.984375 C20.33362407 25.18174263 17.38268389 31.25270246 14.234375 37.2734375 C12.90061736 39.9420264 12.90061736 39.9420264 12.453125 42.7890625 C12.30359375 43.51867187 12.1540625 44.24828125 12 45 C9.21136993 46.39431504 7.07921132 46.25660094 4 46 C1.64290358 42.46435537 1.69990265 40.77974745 1.5859375 36.58203125 C1.54726562 35.32841797 1.50859375 34.07480469 1.46875 32.78320312 C1.4378125 31.47287109 1.406875 30.16253906 1.375 28.8125 C1.33680662 27.4771884 1.29775409 26.14190108 1.2578125 24.80664062 C1.16340847 21.53790112 1.07782983 18.26916936 1 15 C0.81099121 15.95173096 0.62198242 16.90346191 0.42724609 17.8840332 C-4.33590456 41.55726971 -4.33590456 41.55726971 -11 46 C-14.1875 46.4375 -14.1875 46.4375 -17 46 C-19 44 -19 44 -19.125 41.375 C-19.08375 40.59125 -19.0425 39.8075 -19 39 C-17.783125 38.7525 -16.56625 38.505 -15.3125 38.25 C-12.34994546 37.12663276 -11.2070002 36.32743667 -9.49609375 33.62109375 C-8.14962946 30.45120447 -7.03557885 27.28490065 -6 24 C-5.63003906 22.82824219 -5.26007813 21.65648437 -4.87890625 20.44921875 C-2.86614887 13.70316379 -1.21427488 6.93414866 0 0 Z " fill="#F1F2F2" transform="translate(231,99)"/>
<path d="M0 0 C37.29 0 74.58 0 113 0 C113 0.99 113 1.98 113 3 C93.53 3.33 74.06 3.66 54 4 C56.64 4.66 59.28 5.32 62 6 C64.83626562 7.23607522 67.02060361 8.59945544 69 11 C70.16285921 15.53424949 69.07425069 18.85149863 67 23 C66.01 20.03 65.02 17.06 64 14 C60.23337324 14.84268821 60.23337324 14.84268821 57.6875 15.9375 C54.51300131 17.19253437 51.28986095 18.09690092 48 19 C47.67 20.98 47.34 22.96 47 25 C44.8614515 22.8614515 44.57344937 21.86724686 44 19 C43.64951534 23.20581591 44.38132975 24.77702123 47 28 C48.35508296 30.64241177 48.97086161 32.60177531 49.1875 35.5625 C47.19078319 39.66102398 43.10525351 40.47292502 39 42 C33.74851711 43.92804115 33.74851711 43.92804115 30 48 C29.55058745 50.38299617 29.18393057 52.78225484 28.875 55.1875 C28.58625 57.435625 28.2975 59.68375 28 62 C18.76 62 9.52 62 0 62 C0 41.54 0 21.08 0 0 Z " fill="#DC3A8C" transform="translate(53,79)"/>
<path d="M0 0 C41.25 0 82.5 0 125 0 C125 5.61 125 11.22 125 17 C123 19 123 19 121.01315308 19.24050903 C119.79403732 19.2338472 119.79403732 19.2338472 118.55029297 19.22705078 C117.62948944 19.22689972 116.70868591 19.22674866 115.75997925 19.22659302 C114.76410797 19.21627045 113.76823669 19.20594788 112.7421875 19.1953125 C111.72399933 19.1924826 110.70581116 19.18965271 109.6567688 19.18673706 C106.396061 19.1755177 103.13562516 19.15040996 99.875 19.125 C97.66797271 19.11497247 95.46094112 19.10584623 93.25390625 19.09765625 C87.83584428 19.07557268 82.41794157 19.04207795 77 19 C77.42683632 20.27445454 77.86697202 21.54445882 78.3125 22.8125 C78.55613281 23.52019531 78.79976563 24.22789062 79.05078125 24.95703125 C79.8731886 27.07532936 79.8731886 27.07532936 81.60546875 28.44921875 C83 30 83 30 83 35 C69.47 35 55.94 35 42 35 C42 29.32711494 42.61803929 29.07824674 46 25 C46.71138986 23.01546759 47.38430155 21.01627376 48 19 C47.14222458 19.00666183 47.14222458 19.00666183 46.26712036 19.01345825 C40.33028658 19.05760951 34.39349922 19.08783212 28.45654297 19.10986328 C26.23907579 19.11993825 24.02162195 19.13359859 21.80419922 19.15087891 C18.62203688 19.17506163 15.44004976 19.18646797 12.2578125 19.1953125 C10.76400558 19.21079636 10.76400558 19.21079636 9.24002075 19.22659302 C7.85881546 19.22681961 7.85881546 19.22681961 6.44970703 19.22705078 C5.6369632 19.231492 4.82421936 19.23593323 3.98684692 19.24050903 C2 19 2 19 0 17 C0 11.39 0 5.78 0 0 Z " fill="#FEFEFE" transform="translate(47,148)"/>
<path d="M0 0 C2.33294775 -0.04241723 4.66702567 -0.04092937 7 0 C8 1 8 1 8.1875 4.625 C8.13202369 11.47077619 6.99747661 18.24031477 6 25 C9.81474308 23.54715104 10.92804904 21.83868159 12.625 18.1875 C13.02976562 17.33542969 13.43453125 16.48335937 13.8515625 15.60546875 C16.39618139 9.83477552 16.39618139 9.83477552 17.625 3.6875 C17.74875 2.470625 17.8725 1.25375 18 0 C20.33294775 -0.04241723 22.66702567 -0.04092937 25 0 C26 1 26 1 26.25 4.625 C26.20517995 11.53849259 24.4874227 18.28003672 23 25 C26.3 23.35 29.6 21.7 33 20 C33 21.32 33 22.64 33 24 C30.91796875 25.31640625 30.91796875 25.31640625 28.1875 26.5625 C24.1882479 28.76155373 24.1882479 28.76155373 21.87890625 32.55078125 C21.45772377 34.44217836 21.06336149 36.33973707 20.6953125 38.2421875 C19.32717762 43.66861009 15.82438309 47.4636774 11.625 51 C7.75521037 52.47420557 5.14992435 52.46110271 1 52 C-1.5625 50.4375 -1.5625 50.4375 -3 48 C-3 44.1946346 -2.42317595 41.75435712 -0.5625 38.4375 C3.04724247 35.00384252 8.79846888 30 14 30 C13.67 29.01 13.34 28.02 13 27 C12.319375 27.66 11.63875 28.32 10.9375 29 C7.26914026 31.49760663 5.35802608 31.6338947 1 31 C-1.4375 29.6875 -1.4375 29.6875 -3 27 C-3.84696604 20.32076145 -2.78513264 14.40547595 -1 8 C-0.5828146 5.33643166 -0.28734901 2.68192409 0 0 Z " fill="#F0F0F1" transform="translate(400,114)"/>
<path d="M0 0 C2.66666667 5.33333333 5.33333333 10.66666667 8 16 C8.03738281 15.30132812 8.07476562 14.60265625 8.11328125 13.8828125 C8.17902344 12.97273437 8.24476562 12.06265625 8.3125 11.125 C8.37050781 10.22007812 8.42851563 9.31515625 8.48828125 8.3828125 C9 6 9 6 12 4 C14.57826671 8.12522674 14.31805379 10.54443033 15 16 C17.31 11.05 19.62 6.1 22 1 C28.70867266 2.30168275 34.43021804 3.51626165 39 9 C40 12 40 12 40 23 C21.19 23 2.38 23 -17 23 C-17 10.4 -17 10.4 -13.28125 5.9375 C-10.68877112 3.73566862 -8.4658606 2.82195353 -5.25 1.75 C-4.26515625 1.41484375 -3.2803125 1.0796875 -2.265625 0.734375 C-1.51796875 0.49203125 -0.7703125 0.2496875 0 0 Z " fill="#22B2E3" transform="translate(98,118)"/>
<path d="M0 0 C41.25 0 82.5 0 125 0 C124.34 1.32 123.68 2.64 123 4 C107.82 4 92.64 4 77 4 C79.24136127 11.65516421 79.24136127 11.65516421 83 15 C83 16.65 83 18.3 83 20 C69.47 20 55.94 20 42 20 C42 14.32711494 42.61803929 14.07824674 46 10 C46.66 8.02 47.32 6.04 48 4 C32.82 4 17.64 4 2 4 C1.34 2.68 0.68 1.36 0 0 Z " fill="#BABCC1" transform="translate(47,163)"/>
<path d="M0 0 C0.81559387 0.0028299 1.63118774 0.00565979 2.47149658 0.00857544 C5.06969028 0.01974692 7.66753595 0.04484575 10.265625 0.0703125 C12.02994293 0.08034623 13.79426628 0.08947139 15.55859375 0.09765625 C19.87773773 0.11967631 24.19662241 0.15418517 28.515625 0.1953125 C28.66162109 4.97119141 28.66162109 4.97119141 27.34765625 6.98828125 C23.60815547 9.45204616 18.81432886 8.5688466 14.515625 8.1953125 C10.828125 7.1953125 10.828125 7.1953125 8.515625 6.1953125 C6.63088497 8.08005253 6.822305 11.22277652 6.453125 13.7578125 C6.27652344 14.95535156 6.09992188 16.15289062 5.91796875 17.38671875 C5.78519531 18.31355469 5.65242188 19.24039063 5.515625 20.1953125 C9.475625 20.1953125 13.435625 20.1953125 17.515625 20.1953125 C17.185625 21.5153125 16.855625 22.8353125 16.515625 24.1953125 C14.515625 25.1953125 14.515625 25.1953125 4.515625 24.1953125 C3.525625 31.4553125 2.535625 38.7153125 1.515625 46.1953125 C-0.794375 46.1953125 -3.104375 46.1953125 -5.484375 46.1953125 C-7.99892953 43.68075797 -7.72193778 42.09387189 -7.75 38.65625 C-7.44721173 35.85100573 -6.73031322 33.22174327 -6.01904297 30.49658203 C-5.01980099 26.19573503 -4.50315142 21.81872555 -3.921875 17.4453125 C-3.67249898 15.59609341 -3.42126788 13.74712331 -3.16796875 11.8984375 C-3.06025146 11.09051758 -2.95253418 10.28259766 -2.84155273 9.45019531 C-2.50432958 7.32128689 -2.04210334 5.2761484 -1.484375 3.1953125 C-5.23104702 4.8280976 -5.23104702 4.8280976 -8.484375 7.1953125 C-8.52501332 8.86148365 -8.527096 10.52919345 -8.484375 12.1953125 C-7.824375 12.5253125 -7.164375 12.8553125 -6.484375 13.1953125 C-6.484375 14.1853125 -6.484375 15.1753125 -6.484375 16.1953125 C-9.28307527 17.59466263 -11.38936292 17.44796655 -14.484375 17.1953125 C-16.359375 16.1328125 -16.359375 16.1328125 -17.484375 14.1953125 C-17.984375 10.8203125 -17.984375 10.8203125 -17.484375 7.1953125 C-12.32929289 0.75145986 -7.95627288 -0.10413438 0 0 Z " fill="#F1F1F2" transform="translate(376.484375,98.8046875)"/>
<path d="M0 0 C6.0546875 -0.1953125 6.0546875 -0.1953125 8 0 C10.7693509 2.7693509 10.39682143 4.6620663 10.6328125 8.5390625 C10.75849609 10.49199219 10.75849609 10.49199219 10.88671875 12.484375 C10.96634549 13.86457183 11.04576996 15.24478034 11.125 16.625 C11.21139062 18.01307393 11.29861988 19.40109594 11.38671875 20.7890625 C11.59942023 24.19228625 11.80347076 27.59581022 12 31 C12.37511719 30.07316406 12.75023437 29.14632812 13.13671875 28.19140625 C13.64847656 26.99386719 14.16023438 25.79632813 14.6875 24.5625 C15.18636719 23.36753906 15.68523437 22.17257813 16.19921875 20.94140625 C18 18 18 18 20.70703125 17.08984375 C21.46371094 17.06019531 22.22039062 17.03054687 23 17 C20.93178156 23.72170993 18.04603742 30.01809153 14.8125 36.25 C13.31823306 39.1629484 12.58744723 41.76904023 12 45 C9.21136993 46.39431504 7.07921132 46.25660094 4 46 C1.64290358 42.46435537 1.69990265 40.77974745 1.5859375 36.58203125 C1.54726562 35.32841797 1.50859375 34.07480469 1.46875 32.78320312 C1.4378125 31.47287109 1.406875 30.16253906 1.375 28.8125 C1.33680662 27.4771884 1.29775409 26.14190108 1.2578125 24.80664062 C1.16340847 21.53790112 1.07782983 18.26916936 1 15 C0.81099121 15.95173096 0.62198242 16.90346191 0.42724609 17.8840332 C-4.33590456 41.55726971 -4.33590456 41.55726971 -11 46 C-14.1875 46.4375 -14.1875 46.4375 -17 46 C-19 44 -19 44 -19.125 41.375 C-19.08375 40.59125 -19.0425 39.8075 -19 39 C-17.783125 38.7525 -16.56625 38.505 -15.3125 38.25 C-12.34994546 37.12663276 -11.2070002 36.32743667 -9.49609375 33.62109375 C-8.14962946 30.45120447 -7.03557885 27.28490065 -6 24 C-5.63003906 22.82824219 -5.26007813 21.65648437 -4.87890625 20.44921875 C-2.86614887 13.70316379 -1.21427488 6.93414866 0 0 Z " fill="#EEEEEF" transform="translate(231,99)"/>
<path d="M0 0 C1.875 0.125 1.875 0.125 4 1 C5.0409066 2.64142963 6.04504326 4.30712215 7 6 C7.66 6 8.32 6 9 6 C8.63648975 9.72598009 7.89124803 12.4144113 5.9375 15.5625 C4.07023982 18.87538097 3.36809866 20.31390888 4 24 C4.66 24.66 5.32 25.32 6 26 C5.6393105 30.32059978 3.77836779 33.93492743 1.9375 37.8125 C1.38964844 38.97394531 0.84179688 40.13539063 0.27734375 41.33203125 C-0.14417969 42.21246094 -0.56570312 43.09289062 -1 44 C-1.33 44 -1.66 44 -2 44 C-2.33 40.04 -2.66 36.08 -3 32 C-3.99 32 -4.98 32 -6 32 C-6.33 35.63 -6.66 39.26 -7 43 C-9.68202389 40.31797611 -11.04485145 38.42496397 -12.75 35.125 C-13.19859375 34.28195313 -13.6471875 33.43890625 -14.109375 32.5703125 C-15.40892004 28.8198711 -14.46404655 26.32074788 -13.1875 22.6875 C-12.89831738 18.54254916 -14.89683813 15.4889662 -17 12 C-17.33 11.67 -17.66 11.34 -18 11 C-18.04063832 9.33382885 -18.042721 7.66611905 -18 6 C-17.34 5.67 -16.68 5.34 -16 5 C-15.67 6.65 -15.34 8.3 -15 10 C-14.814375 9.21625 -14.62875 8.4325 -14.4375 7.625 C-13 5 -13 5 -9.6875 3.8125 C-8.470625 3.544375 -7.25375 3.27625 -6 3 C-2.73514454 1.93070551 -2.73514454 1.93070551 0 0 Z " fill="#F6F03B" transform="translate(114,92)"/>
<path d="M0 0 C2.75329021 1.79562405 4.52627461 3.05254922 6 6 C6.69019608 13.01699346 6.69019608 13.01699346 3.9375 16.9375 C0.38459775 19.43209094 -1.65904305 20.07615714 -6 20 C-11.46835443 17.06329114 -11.46835443 17.06329114 -13 14 C-13.5811138 6.91041162 -13.5811138 6.91041162 -11.125 3.0625 C-7.52072687 -0.4357651 -4.96784874 -0.42100413 0 0 Z " fill="#EC5E99" transform="translate(113,52)"/>
<path d="M0 0 C2.8593274 1.4296637 4.56319747 2.88251845 6.625 5.3125 C7.625 8.3125 7.625 8.3125 7.625 19.3125 C-0.295 19.3125 -8.215 19.3125 -16.375 19.3125 C-14.395 17.0025 -12.415 14.6925 -10.375 12.3125 C-9.29415479 8.67630344 -9.29415479 8.67630344 -9.375 6.3125 C-8.385 6.3125 -7.395 6.3125 -6.375 6.3125 C-6.08625 5.343125 -5.7975 4.37375 -5.5 3.375 C-4.17058679 -0.24395819 -3.77191865 -1.09187119 0 0 Z " fill="#1EADE3" transform="translate(130.375,121.6875)"/>
<path d="M0 0 C41.25 0 82.5 0 125 0 C124.67 0.99 124.34 1.98 124 3 C71.40192926 4.20900322 71.40192926 4.20900322 50 4 C49.67 4.66 49.34 5.32 49 6 C49 5.01 49 4.02 49 3 C33.16 3 17.32 3 1 3 C0.67 2.01 0.34 1.02 0 0 Z " fill="#D3D4D5" transform="translate(47,163)"/>
<path d="M0 0 C4.95413159 0.37155987 8.05096701 2.04231717 12.0703125 4.74609375 C13.98946042 5.99315141 15.93654708 7.01412805 18 8 C18 8.66 18 9.32 18 10 C18.61875 10.103125 19.2375 10.20625 19.875 10.3125 C22 11 22 11 24 14 C24.99 14.33 25.98 14.66 27 15 C28.578125 16.56640625 28.578125 16.56640625 30.25 18.5625 C30.86230469 19.28566406 31.47460938 20.00882813 32.10546875 20.75390625 C32.73066406 21.49511719 33.35585937 22.23632812 34 23 C35.18572844 24.33490902 36.37318586 25.66828461 37.5625 27 C38.71165769 28.33046924 39.85763267 29.66369589 41 31 C41.49242187 31.55558594 41.98484375 32.11117187 42.4921875 32.68359375 C51.11295607 43.1450129 55.92775985 56.98100212 59 70 C59.17660156 70.62946533 59.35320312 71.25893066 59.53515625 71.9074707 C61.37521853 78.96348967 61.29550917 85.93258025 61.25 93.1875 C61.26160156 95.05438477 61.26160156 95.05438477 61.2734375 96.95898438 C61.27085937 98.16232422 61.26828125 99.36566406 61.265625 100.60546875 C61.26336914 101.68981201 61.26111328 102.77415527 61.25878906 103.89135742 C60.98266773 107.20819981 60.1388312 109.88414907 59 113 C58.48284811 115.83092775 58.06599487 118.66296804 57.66015625 121.51171875 C56.94173347 124.21961998 56.142199 125.25472071 54 127 C54.268125 125.741875 54.53625 124.48375 54.8125 123.1875 C55.21374222 121.12604543 55.60855541 119.06333744 56 117 C56.13374023 116.32404785 56.26748047 115.6480957 56.40527344 114.95166016 C61.34950726 89.54098905 58.47382501 63.67197587 44.35546875 41.42578125 C43 39 43 39 43 36 C42.34 36 41.68 36 41 36 C39.703125 34.20703125 39.703125 34.20703125 38.25 31.8125 C35.55134806 27.6131343 32.9518257 25.0068239 29 22 C26.625 19.8125 26.625 19.8125 25 18 C25 17.34 25 16.68 25 16 C24.38125 15.690625 23.7625 15.38125 23.125 15.0625 C21.75 14.375 20.375 13.6875 19 13 C19 12.34 19 11.68 19 11 C18.32582031 10.75507812 17.65164062 10.51015625 16.95703125 10.2578125 C13.35909286 8.72738164 10.06123937 6.84156692 6.6875 4.875 C6.04232422 4.50246094 5.39714844 4.12992188 4.73242188 3.74609375 C3.15324055 2.83367787 1.57638136 1.91724491 0 1 C0 0.67 0 0.34 0 0 Z " fill="#2B2554" transform="translate(152,31)"/>
<path d="M0 0 C3.56728131 1.45592355 6.38835181 3.1476469 9 6 C10.40113674 10.51477394 9.07589629 13.84820742 7 18 C5.515 13.545 5.515 13.545 4 9 C0.23337324 9.84268821 0.23337324 9.84268821 -2.3125 10.9375 C-5.48699869 12.19253437 -8.71013905 13.09690092 -12 14 C-12.33 15.98 -12.66 17.96 -13 20 C-15.56400777 17.43599223 -15.32633634 16.31217985 -15.375 12.75 C-15.29232669 7.50024487 -14.48381089 4.89367099 -11 1 C-7.44446849 -0.77776576 -3.87367131 -0.61572245 0 0 Z " fill="#21A8DD" transform="translate(113,84)"/>
<path d="M0 0 C0.66 0.33 1.32 0.66 2 1 C1.56021982 8.48783622 1.13008044 15.78139407 -1 23 C-4.22213757 25.14809171 -5.27775401 25.29386153 -9 25 C-10 24 -10 24 -10.1875 21.1875 C-10.11460503 15.35590277 -9.6246468 8.24929361 -7 3 C-4.69 3 -2.38 3 0 3 C0 2.01 0 1.02 0 0 Z " fill="#222533" transform="translate(343,114)"/>
<path d="M0 0 C1.32 0.66 2.64 1.32 4 2 C0.98571908 22.14808825 0.98571908 22.14808825 -4.375 28.25 C-7.55045131 30.36696754 -9.25491084 30.58256943 -13 30 C-15 28 -15 28 -15.125 25.375 C-15.08375 24.59125 -15.0425 23.8075 -15 23 C-13.783125 22.7525 -12.56625 22.505 -11.3125 22.25 C-8.20623361 21.10095633 -7.16954316 20.27892585 -5.42578125 17.41015625 C-3.04894951 11.75001339 -1.26954826 6.00150085 0 0 Z " fill="#E9EAEB" transform="translate(227,115)"/>
<path d="M0 0 C13.53 0 27.06 0 41 0 C41 1.32 41 2.64 41 4 C27.47 4 13.94 4 0 4 C0 2.68 0 1.36 0 0 Z " fill="#EBEDEE" transform="translate(89,179)"/>
<path d="M0 0 C-3.39528627 2.26352418 -6.26297721 2.64892589 -10.1875 3.25 C-31.79238187 6.9854235 -50.26537784 17.77361841 -65.5 33.375 C-66.22703125 34.11105469 -66.9540625 34.84710938 -67.703125 35.60546875 C-69.47346856 37.3991063 -71.23892503 39.19726933 -73 41 C-73.66 40.67 -74.32 40.34 -75 40 C-64.3255814 28.02325581 -64.3255814 28.02325581 -61 25 C-60.34 25 -59.68 25 -59 25 C-59 24.34 -59 23.68 -59 23 C-58.34 23 -57.68 23 -57 23 C-57 22.34 -57 21.68 -57 21 C-54.94601117 19.48077749 -52.91060936 18.10293899 -50.75 16.75 C-50.11682861 16.34958496 -49.48365723 15.94916992 -48.83129883 15.53662109 C-38.18068746 8.90146468 -27.52456233 3.56557029 -15 2 C-14.67 1.67 -14.34 1.34 -14 1 C-9.37776522 0.22644418 -4.68490867 -0.15112609 0 0 Z " fill="#2C255B" transform="translate(102,21)"/>
<path d="M0 0 C5.75 0.75 5.75 0.75 8 3 C7.01 3.495 7.01 3.495 6 4 C5.27840576 5.64363134 4.60648579 7.31050386 4 9 C3.01 9 2.02 9 1 9 C1.268125 9.70125 1.53625 10.4025 1.8125 11.125 C2 14 2 14 -0.25 17.1875 C-3 20 -3 20 -6 22 C-8.1875 21.625 -8.1875 21.625 -10 21 C-8.70892916 18.24971886 -7.41716659 15.49976627 -6.125 12.75 C-5.76019531 11.97269531 -5.39539063 11.19539062 -5.01953125 10.39453125 C-4.66503906 9.64042969 -4.31054688 8.88632813 -3.9453125 8.109375 C-3.62062988 7.41811523 -3.29594727 6.72685547 -2.96142578 6.01464844 C-1.99856899 3.99700135 -1.00603787 1.99641757 0 0 Z " fill="#2BC0E6" transform="translate(120,119)"/>
<path d="M0 0 C2 1.625 2 1.625 3 4 C2.77962372 7.67293796 2.63033454 9.36966546 0 12 C-6.05240175 12.55021834 -6.05240175 12.55021834 -8.9375 10.875 C-10.50422245 8.11019567 -10.38976435 6.11811483 -10 3 C-7.72375139 -1.01690931 -4.20725277 -0.5259066 0 0 Z " fill="#FAD63C" transform="translate(113,56)"/>
<path d="M0 0 C0.33 0 0.66 0 1 0 C1.226875 1.258125 1.45375 2.51625 1.6875 3.8125 C2.46644408 6.86336431 2.82741327 7.83727537 5.1875 10.0625 C8.91952086 11.30650695 11.21799275 11.03145652 15 10 C18.15052314 7.7614704 18.87610406 6.53688242 19.75 2.75 C19.8325 1.8425 19.915 0.935 20 0 C20.33 0 20.66 0 21 0 C22.27798935 4.71258572 23 8.04265048 23 13 C14.42 13 5.84 13 -3 13 C-2.12248769 8.61243846 -1.10158284 4.33289252 0 0 Z " fill="#D03685" transform="translate(99,60)"/>
<path d="M0 0 C1.32 0.66 2.64 1.32 4 2 C3.35534798 6.33304076 1.81074878 9.86672065 -0.0625 13.8125 C-0.61035156 14.97394531 -1.15820312 16.13539063 -1.72265625 17.33203125 C-2.14417969 18.21246094 -2.56570312 19.09289062 -3 20 C-3.33 20 -3.66 20 -4 20 C-4.16874707 18.08351538 -4.33491643 16.16680367 -4.5 14.25 C-4.5928125 13.18265625 -4.685625 12.1153125 -4.78125 11.015625 C-4.95052283 8.6820782 -5 6.33967818 -5 4 C-2.5 1.75 -2.5 1.75 0 0 Z " fill="#F7FAF8" transform="translate(116,116)"/>
<path d="M0 0 C2.95409701 1.37154504 5.44008376 2.98863724 8 5 C7.43393721 9.69023454 6.81462495 14.34500026 6 19 C3.39368483 16.65431635 1.85595651 14.23299819 0.25 11.125 C-0.19859375 10.28195313 -0.6471875 9.43890625 -1.109375 8.5703125 C-2.14788367 5.57321291 -1.93916671 3.99489829 -1 1 C-0.67 0.67 -0.34 0.34 0 0 Z " fill="#F6F9F9" transform="translate(101,116)"/>
<path d="M0 0 C1 2 1 2 0.58203125 3.8046875 C-0.95837447 7.94892624 -2.24142788 11.38038913 -6 14 C-8.25 13.75 -8.25 13.75 -10 13 C-10.2421875 10.734375 -10.2421875 10.734375 -10 8 C-8.3203125 6.015625 -8.3203125 6.015625 -6.125 4.25 C-5.04605469 3.36054688 -5.04605469 3.36054688 -3.9453125 2.453125 C-2 1 -2 1 0 0 Z " fill="#262936" transform="translate(412,148)"/>
<path d="M0 0 C0.99 0.66 1.98 1.32 3 2 C3.3984375 5.15234375 3.3984375 5.15234375 3.375 8.9375 C3.38273437 10.18402344 3.39046875 11.43054688 3.3984375 12.71484375 C3 16 3 16 1.4765625 17.94140625 C0.98929687 18.29074219 0.50203125 18.64007813 0 19 C-2.46062979 15.30905532 -2.26816777 13.32955805 -2.25 8.9375 C-2.25515625 7.68839844 -2.2603125 6.43929687 -2.265625 5.15234375 C-2 2 -2 2 0 0 Z " fill="#109BD9" transform="translate(109,122)"/>
<path d="M0 0 C5.56382979 2.78191489 5.56382979 2.78191489 8 5 C9.36289676 9.46923936 8.04674783 12.90650433 6 17 C5.01 14.03 4.02 11.06 3 8 C1.02 8.33 -0.96 8.66 -3 9 C-2.01 6.03 -1.02 3.06 0 0 Z " fill="#1195D7" transform="translate(114,85)"/>
<path d="M0 0 C0.556875 0.268125 1.11375 0.53625 1.6875 0.8125 C1.3442585 3.90167348 0.86556461 5.58355979 -1.0625 8.0625 C-3.54144021 9.99056461 -5.22332652 10.4692585 -8.3125 10.8125 C-8.03683285 6.86127078 -7.48535643 5.03207438 -5 1.875 C-2.3125 -0.1875 -2.3125 -0.1875 0 0 Z " fill="#2F313E" transform="translate(313.3125,117.1875)"/>
<path d="M0 0 C-0.24324316 4.2162147 -0.37137758 6.35483489 -3.375 9.4375 C-6 11 -6 11 -9 11 C-9.40060526 7.49470398 -9.15413141 6.2260594 -7.125 3.25 C-4.49072613 0.46076885 -3.84107382 0 0 0 Z " fill="#292C39" transform="translate(287,117)"/>
<path d="M0 0 C0.99 0.495 0.99 0.495 2 1 C5.86061033 2.28687011 8.94150283 2.13757618 13 2 C13 1.34 13 0.68 13 0 C13.66 0 14.32 0 15 0 C14.61479436 2.53910197 14.29902057 3.72751123 12.37109375 5.484375 C11.73300781 5.90203125 11.09492187 6.3196875 10.4375 6.75 C9.79683594 7.17796875 9.15617187 7.6059375 8.49609375 8.046875 C8.00238281 8.36140625 7.50867188 8.6759375 7 9 C5.82460004 8.07347299 4.65989423 7.13336613 3.5 6.1875 C2.52546875 5.40439453 2.52546875 5.40439453 1.53125 4.60546875 C0 3 0 3 0 0 Z " fill="#F8CE21" transform="translate(102,113)"/>
<path d="M0 0 C10.76179231 0.60365953 21.52754759 2.5588471 31 8 C31.33 8.66 31.66 9.32 32 10 C31.40646729 9.8131665 30.81293457 9.62633301 30.20141602 9.43383789 C22.89664769 7.18222707 15.52724085 5.44530849 8.06445312 3.80664062 C7.16533203 3.60103516 6.26621094 3.39542969 5.33984375 3.18359375 C4.52894287 3.00368896 3.71804199 2.82378418 2.88256836 2.63842773 C1 2 1 2 0 0 Z " fill="#2B2455" transform="translate(120,21)"/>
<path d="M0 0 C0.66 0 1.32 0 2 0 C-1.34561167 7.79510535 -9.57119267 11.52789995 -16.875 15 C-17.52944092 15.31493408 -18.18388184 15.62986816 -18.8581543 15.9543457 C-23.62425691 18.1252477 -23.62425691 18.1252477 -27 17 C-26.03320312 16.50371094 -25.06640625 16.00742188 -24.0703125 15.49609375 C-16.98500759 11.81352179 -10.26301036 8.05833944 -3.85546875 3.25 C-2 2 -2 2 0 2 C0 1.34 0 0.68 0 0 Z " fill="#292256" transform="translate(175,201)"/>
<path d="M0 0 C0.33 0 0.66 0 1 0 C1.01981934 0.57854736 1.03963867 1.15709473 1.06005859 1.75317383 C1.47342859 15.74339057 1.47342859 15.74339057 3.5234375 29.55859375 C4.38915749 33.99363467 4.66911828 38.49826706 5 43 C-2.803505 31.29474249 -0.30823482 13.31732511 0 0 Z " fill="#2E2A53" transform="translate(6,111)"/>
<path d="M0 0 C2.33944736 0.28730055 4.6739143 0.61936779 7 1 C7.125 3.375 7.125 3.375 7 6 C5 8 5 8 2.4375 8.1875 C0 8 0 8 -1 7 C-1.125 4 -1.125 4 -1 1 C-0.67 0.67 -0.34 0.34 0 0 Z " fill="#F0F0F1" transform="translate(349,101)"/>
<path d="M0 0 C2.5 0.125 2.5 0.125 3.5 1.125 C3.625 3.625 3.625 3.625 3.5 6.125 C2.5 7.125 2.5 7.125 0 7.25 C-2.5 7.125 -2.5 7.125 -3.5 6.125 C-3.625 3.625 -3.625 3.625 -3.5 1.125 C-2.5 0.125 -2.5 0.125 0 0 Z " fill="#E8E9EA" transform="translate(109.5,151.875)"/>
<path d="M0 0 C1.32 0.66 2.64 1.32 4 2 C3.34 5.63 2.68 9.26 2 13 C1.34 11.68 0.68 10.36 0 9 C-0.99 9.495 -0.99 9.495 -2 10 C-1.34 6.7 -0.68 3.4 0 0 Z " fill="#D6D7D9" transform="translate(227,115)"/>
<path d="M0 0 C0.33 0 0.66 0 1 0 C1.48828125 2.01822917 1.9765625 4.03645833 2.46484375 6.0546875 C2.94846992 8.0585657 2.94846992 8.0585657 4 10 C3.34 10 2.68 10 2 10 C2 10.99 2 11.98 2 13 C0.35 13 -1.3 13 -3 13 C-2.17812739 8.61667943 -1.09845718 4.32059823 0 0 Z " fill="#9E2C76" transform="translate(99,60)"/>
<path d="M0 0 C2.5 0.25 2.5 0.25 4.5 2.25 C4.125 5.375 4.125 5.375 3.5 8.25 C2.84 6.93 2.18 5.61 1.5 4.25 C-2.21599191 4.04913557 -3.27208445 4.0980563 -6.5 6.25 C-3.75874126 0.37587413 -3.75874126 0.37587413 0 0 Z " fill="#FDE038" transform="translate(110.5,55.75)"/>
<path d="M0 0 C-0.33 0.66 -0.66 1.32 -1 2 C-1.66 2 -2.32 2 -3 2 C-3 2.66 -3 3.32 -3 4 C-5.64 4.33 -8.28 4.66 -11 5 C-11.33 4.34 -11.66 3.68 -12 3 C-10.3789897 2.30314502 -8.75303934 1.61777139 -7.125 0.9375 C-6.22007813 0.55464844 -5.31515625 0.17179687 -4.3828125 -0.22265625 C-2 -1 -2 -1 0 0 Z " fill="#FDE132" transform="translate(118,111)"/>
<path d="M0 0 C1.65 0 3.3 0 5 0 C5.33 1.65 5.66 3.3 6 5 C4.34385343 5.38218767 2.67542976 5.71395102 1 6 C0 5 0 5 -0.0625 2.4375 C-0.041875 1.633125 -0.02125 0.82875 0 0 Z " fill="#ECB224" transform="translate(107,59)"/>
<path d="M0 0 C1 3 1 3 0.328125 4.7265625 C-0.02765625 5.35304688 -0.3834375 5.97953125 -0.75 6.625 C-3.05690842 10.93443308 -4.57464228 15.33519292 -6 20 C-6.33 20 -6.66 20 -7 20 C-6.40373356 13.29200257 -4.87551498 4.87551498 0 0 Z " fill="#312B5A" transform="translate(17,78)"/>
<path d="M0 0 C0.33 0 0.66 0 1 0 C3.28571429 8.42857143 3.28571429 8.42857143 3 13 C1.68 13 0.36 13 -1 13 C-0.67 8.71 -0.34 4.42 0 0 Z " fill="#9D2A76" transform="translate(119,60)"/>
<path d="M0 0 C1.32 1.32 2.64 2.64 4 4 C2.25 9.75 2.25 9.75 0 12 C-0.19477739 10.37585622 -0.38059458 8.75063577 -0.5625 7.125 C-0.66691406 6.22007812 -0.77132812 5.31515625 -0.87890625 4.3828125 C-1 2 -1 2 0 0 Z " fill="#D2E7EE" transform="translate(112,124)"/>
<path d="M0 0 C0.66 0.66 1.32 1.32 2 2 C1.9765625 4.1640625 1.9765625 4.1640625 1.625 6.625 C1.51414062 7.44226563 1.40328125 8.25953125 1.2890625 9.1015625 C1.19367188 9.72804687 1.09828125 10.35453125 1 11 C-1.64107354 8.53258609 -2.79641403 6.42559084 -4 3 C-3.01 2.67 -2.02 2.34 -1 2 C-0.67 1.34 -0.34 0.68 0 0 Z " fill="#D4E7F0" transform="translate(106,124)"/>
<path d="M0 0 C4.03810445 1.34603482 5.47295076 3.65336723 8 7 C8 7.66 8 8.32 8 9 C8.99 9.33 9.98 9.66 11 10 C11 10.66 11 11.32 11 12 C7.3571729 10.52513858 5.59170887 8.55477485 3.25 5.4375 C2.63640625 4.63183594 2.0228125 3.82617188 1.390625 2.99609375 C0 1 0 1 0 0 Z " fill="#2B2555" transform="translate(27,186)"/>
<path d="M0 0 C1.0169313 2.65498232 1.13022151 3.69155375 0.00390625 6.359375 C-0.47175781 7.14828125 -0.94742188 7.9371875 -1.4375 8.75 C-1.91058594 9.54921875 -2.38367188 10.3484375 -2.87109375 11.171875 C-3.24363281 11.77515625 -3.61617187 12.3784375 -4 13 C-4.66 13 -5.32 13 -6 13 C-4.58707905 8.1725201 -2.57025846 4.2837641 0 0 Z " fill="#282155" transform="translate(202,166)"/>
<path d="M0 0 C0.33 0 0.66 0 1 0 C1 4.95 1 9.9 1 15 C0.67 15 0.34 15 0 15 C0 13.02 0 11.04 0 9 C-0.66 9 -1.32 9 -2 9 C-1.34 6.03 -0.68 3.06 0 0 Z " fill="#73757E" transform="translate(232,112)"/>
<path d="M0 0 C4.875 1.875 4.875 1.875 6 3 C6.14115161 5.67058851 6.04247107 8.32432238 6 11 C5.67 11 5.34 11 5 11 C4.731875 10.071875 4.46375 9.14375 4.1875 8.1875 C3.06289965 5.1688359 2.29293427 4.0844857 0 2 C0 1.34 0 0.68 0 0 Z " fill="#33ACE0" transform="translate(116,87)"/>
<path d="M0 0 C0.66 0 1.32 0 2 0 C1.44449305 3.59905908 0.25112752 4.99909799 -2.5625 7.25 C-3.20316406 7.77078125 -3.84382812 8.2915625 -4.50390625 8.828125 C-4.99761719 9.21484375 -5.49132812 9.6015625 -6 10 C-6.66 9.67 -7.32 9.34 -8 9 C-7.50628906 8.51789063 -7.01257813 8.03578125 -6.50390625 7.5390625 C-5.86324219 6.90742188 -5.22257813 6.27578125 -4.5625 5.625 C-3.92441406 4.99851563 -3.28632813 4.37203125 -2.62890625 3.7265625 C-0.92117824 2.08276939 -0.92117824 2.08276939 0 0 Z " fill="#282255" transform="translate(185,191)"/>
<path d="M0 0 C0.99 0.66 1.98 1.32 3 2 C2.34 3.32 1.68 4.64 1 6 C0.01 5.34 -0.98 4.68 -2 4 C-1.34 2.68 -0.68 1.36 0 0 Z " fill="#1EABDE" transform="translate(109,122)"/>
<path d="M0 0 C0.33 0 0.66 0 1 0 C1.66 3.3 2.32 6.6 3 10 C-0.91941982 6.69298952 -0.91941982 6.69298952 -1.3125 3.3125 C-1 1 -1 1 0 0 Z " fill="#EDE54A" transform="translate(97,97)"/>
<path d="M0 0 C1 3 1 3 0.25 5.5625 C-1 8 -1 8 -4 10 C-2.8905928 6.51329166 -1.73662334 3.22515763 0 0 Z " fill="#5B5D67" transform="translate(255,114)"/>
<path d="M0 0 C0.66 0.33 1.32 0.66 2 1 C-0.31 3.31 -2.62 5.62 -5 8 C-5 5 -5 5 -2.5 2.3125 C-1.675 1.549375 -0.85 0.78625 0 0 Z " fill="#DEDEE0" transform="translate(304,116)"/>
</svg>
